<svg width="188" height="261" viewBox="0 0 188 261" fill="none" xmlns="http://www.w3.org/2000/svg">
<rect x="7" width="166" height="66.6207" rx="11" fill="#4D629B"/>
<rect x="7" y="3" width="166" height="74" rx="11" fill="#1BA1F7"/>
<rect x="114.482" y="8.13794" width="47.7698" height="42.8276" rx="10" fill="#B2C3FE"/>
<circle cx="150.5" cy="20.5" r="8.5" fill="#4D5E98"/>
<circle cx="138.5" cy="38.5" r="8.5" fill="#4D5E98"/>
<circle cx="126.5" cy="20.5" r="8.5" fill="#4D5E98"/>
<rect x="75" y="198" width="39" height="44" rx="11" fill="#8C8C8C"/>
<rect x="86" y="145" width="17" height="84" rx="8.5" fill="#BBBBBB"/>
<path d="M0 147C0 121.595 20.5949 101 46 101H142C167.405 101 188 121.595 188 147V161C188 167.075 183.075 172 177 172H11C4.92487 172 0 167.075 0 161V147Z" fill="#D9D9D9"/>
<rect y="152" width="188" height="17" rx="8.5" fill="#B6B6B6"/>
<rect y="151" width="188" height="1" rx="0.5" fill="#AFADAD"/>
<path d="M3.66736 164.713C3.30261 162.532 5.34348 160.719 7.4667 161.339L41.806 171.36C43.102 171.738 43.9858 172.935 43.9652 174.285L42.6948 257.707C42.6465 260.877 38.3538 261.815 36.9879 258.954L24.6747 233.162C17.2421 217.593 11.3233 201.346 7 184.645L3.66736 164.713Z" fill="#686868"/>
<path d="M0.463605 164.495C0.15778 162.666 1.56808 161 3.42253 161H37.0412C38.6819 161 40.0182 162.318 40.0409 163.958L41.34 257.787C41.3805 260.711 37.4619 261.713 36.0941 259.128L22.6303 233.681C14.571 218.449 8.31855 202.328 4 185.645L0.463605 164.495Z" fill="#E06C00"/>
<path d="M0.569682 163.477C0.278155 162.21 1.24121 161 2.54209 161H39C40.6569 161 42 162.343 42 164V256.839C42 259.126 38.9628 259.921 37.8422 257.928L35.5016 253.766C19.6023 225.494 7.83861 195.089 0.569682 163.477Z" fill="#FE7B00"/>
<path d="M4.11768 166.65C4.11768 165.765 4.8396 165.051 5.72404 165.06L38.3524 165.401C38.9161 165.407 39.37 165.865 39.37 166.429C39.37 166.988 38.9245 167.444 38.3663 167.457L5.74554 168.239C4.85288 168.261 4.11768 167.543 4.11768 166.65Z" fill="#E06C00"/>
<path d="M4.11768 166.631C4.11768 165.754 4.8416 165.043 5.73462 165.043L38.3218 165.412C38.9007 165.412 39.37 165.872 39.37 166.441C39.37 166.995 38.9238 167.449 38.3601 167.47L5.79373 168.218C4.87815 168.251 4.11768 167.531 4.11768 166.631Z" fill="#E06C00"/>
<path d="M5.89989 174.149C5.82525 173.312 6.44521 172.575 7.28334 172.505L38.6161 169.892C39.1562 169.847 39.6323 170.248 39.6804 170.787C39.7275 171.316 39.3462 171.786 38.8191 171.848L7.59717 175.528C6.74478 175.629 5.97606 175.004 5.89989 174.149Z" fill="#E06C00"/>
<path d="M5.89938 174.144C5.82497 173.308 6.44738 172.573 7.28957 172.5L38.6048 169.896C39.1507 169.849 39.6324 170.25 39.6807 170.791C39.7277 171.319 39.3454 171.788 38.8155 171.853L7.61468 175.519C6.754 175.624 5.97572 175 5.89938 174.144Z" fill="#E06C00"/>
<path d="M7.03516 181.257C6.90302 180.438 7.45325 179.668 8.27104 179.527L38.4523 174.349C38.9934 174.256 39.5083 174.624 39.5957 175.166C39.6791 175.683 39.3422 176.173 38.8295 176.279L8.85394 182.51C8.00311 182.686 7.17357 182.115 7.03516 181.257Z" fill="#E06C00"/>
<path d="M7.03881 181.28C6.90526 180.452 7.47389 179.675 8.30889 179.545L38.4565 174.333C38.9978 174.248 39.5068 174.615 39.5934 175.152C39.6778 175.675 39.3297 176.169 38.8058 176.27L8.84764 182.534C7.99655 182.698 7.17583 182.129 7.03881 181.28Z" fill="#E06C00"/>
<path d="M8.6366 188.386C8.41517 187.574 8.8964 186.743 9.71048 186.531L38.4858 179.039C39.0114 178.902 39.5524 179.215 39.6953 179.739C39.8352 180.252 39.5425 180.779 39.0337 180.931L10.5561 189.452C9.73279 189.698 8.86288 189.215 8.6366 188.386Z" fill="#E06C00"/>
<path d="M8.63544 188.382C8.41448 187.572 8.89734 186.741 9.71394 186.526L38.4781 179.044C39.0075 178.904 39.5528 179.217 39.6961 179.742C39.8356 180.253 39.5421 180.78 39.0318 180.935L10.5679 189.444C9.73895 189.694 8.86214 189.212 8.63544 188.382Z" fill="#E06C00"/>
<path d="M11.4118 195.073C11.1369 194.289 11.5455 193.436 12.3289 193.16L38.3395 183.976C38.8581 183.793 39.431 184.068 39.613 184.587C39.7868 185.082 39.5406 185.623 39.0529 185.816L13.4272 195.993C12.6193 196.313 11.6996 195.894 11.4118 195.073Z" fill="#E06C00"/>
<path d="M11.4192 195.094C11.1412 194.301 11.5639 193.439 12.3633 193.169L38.3439 183.961C38.8621 183.786 39.4283 184.06 39.6084 184.574C39.784 185.075 39.5286 185.621 39.0305 185.809L13.4224 196.021C12.6133 196.328 11.7044 195.907 11.4192 195.094Z" fill="#E06C00"/>
<path d="M13.7499 202.063C13.3832 201.291 13.7294 200.377 14.5158 200.041L38.4456 189.822C38.9392 189.612 39.5162 189.83 39.7464 190.315C39.9784 190.803 39.7727 191.382 39.2845 191.614L15.8045 202.793C15.0387 203.158 14.1138 202.829 13.7499 202.063Z" fill="#E06C00"/>
<path d="M13.7341 202.03C13.3733 201.27 13.7019 200.369 14.4681 200.018L38.4334 189.855C38.9301 189.628 39.5224 189.843 39.7563 190.336C39.9841 190.815 39.7883 191.385 39.313 191.624L15.825 202.746C15.053 203.134 14.1043 202.809 13.7341 202.03Z" fill="#E06C00"/>
<path d="M16.4906 208.75C16.0825 207.996 16.3837 207.064 17.1556 206.691L38.3699 196.44C38.8527 196.206 39.4391 196.395 39.6943 196.867C39.9527 197.344 39.7766 197.935 39.2991 198.192L18.5775 209.373C17.8326 209.775 16.8937 209.494 16.4906 208.75Z" fill="#E06C00"/>
<path d="M16.4706 208.713C16.0698 207.973 16.35 207.057 17.0964 206.667L38.3601 196.478C38.844 196.226 39.4469 196.41 39.7068 196.89C39.9599 197.357 39.7946 197.936 39.3328 198.199L18.5968 209.321C17.8465 209.748 16.8818 209.472 16.4706 208.713Z" fill="#E06C00"/>
<path d="M18.9125 215.511C18.4401 214.797 18.6578 213.843 19.3936 213.404L38.5163 201.994C38.9784 201.718 39.5819 201.856 39.8786 202.304C40.178 202.757 40.0554 203.36 39.6031 203.66L21.0525 215.947C20.345 216.416 19.3808 216.219 18.9125 215.511Z" fill="#E06C00"/>
<path d="M18.8915 215.479C18.4265 214.776 18.6243 213.84 19.3334 213.388L38.5137 202.03C38.9733 201.736 39.5903 201.868 39.8917 202.324C40.1854 202.768 40.0721 203.359 39.6353 203.66L21.0636 215.903C20.3541 216.393 19.3685 216.201 18.8915 215.479Z" fill="#E06C00"/>
<path d="M21.8925 222.137C21.3191 221.466 21.4464 220.459 22.1691 219.951L38.6075 208.374C39.0348 208.073 39.6269 208.147 39.966 208.544C40.3302 208.97 40.2666 209.606 39.8253 209.952L24.0194 222.349C23.3713 222.857 22.4273 222.763 21.8925 222.137Z" fill="#E06C00"/>
<path d="M21.8235 222.057C21.2747 221.414 21.3548 220.461 22.0025 219.927L38.6048 208.467C39.0246 208.121 39.6534 208.178 40.0091 208.594C40.3557 209 40.3165 209.599 39.9204 209.951L24.0319 222.217C23.3885 222.788 22.3865 222.715 21.8235 222.057Z" fill="#E06C00"/>
<path d="M24.7648 228.728C24.1417 228.095 24.2064 227.073 24.9046 226.521L38.5078 215.764C38.9153 215.442 39.506 215.478 39.8697 215.848C40.2664 216.252 40.2449 216.897 39.8222 217.274L26.8873 228.798C26.2772 229.341 25.3374 229.31 24.7648 228.728Z" fill="#E06C00"/>
<path d="M24.6786 228.64C24.0855 228.037 24.0977 227.081 24.7059 226.504L38.5136 215.872C38.9078 215.498 39.5391 215.512 39.9236 215.903C40.2981 216.284 40.3017 216.885 39.9315 217.263L26.893 228.649C26.2918 229.263 25.287 229.259 24.6786 228.64Z" fill="#E06C00"/>
<path d="M27.7499 235.117C27.1446 234.501 27.189 233.513 27.8472 232.953L38.5067 223.883C38.9159 223.535 39.531 223.562 39.9073 223.945C40.2937 224.338 40.2882 224.962 39.8949 225.348L29.9162 235.137C29.3157 235.726 28.3399 235.717 27.7499 235.117Z" fill="#E06C00"/>
<path d="M27.7097 235.076C27.1166 234.473 27.1289 233.517 27.737 232.94L38.5224 223.94C38.9167 223.566 39.548 223.58 39.9324 223.971C40.307 224.351 40.3105 224.952 39.9403 225.33L29.9242 235.085C29.3229 235.699 28.3181 235.695 27.7097 235.076Z" fill="#E06C00"/>
<path d="M30.4053 241.651C29.7536 241.054 29.7712 240.034 30.4433 239.457L38.4915 232.555C38.8887 232.215 39.4835 232.224 39.8686 232.577C40.2875 232.96 40.3057 233.606 39.909 234.013L32.5174 241.591C31.9478 242.175 31.0067 242.201 30.4053 241.651Z" fill="#E06C00"/>
<path d="M30.3174 241.57C29.6931 240.998 29.6543 240.043 30.2309 239.436L38.5139 232.668C38.8876 232.275 39.5188 232.256 39.9236 232.627C40.3179 232.988 40.3534 233.588 40.0039 233.984L32.5294 241.465C31.9616 242.109 30.958 242.157 30.3174 241.57Z" fill="#E06C00"/>
<path d="M33.7238 247.692C33.0961 247.175 33.0151 246.254 33.5429 245.635L38.5656 239.746C38.9359 239.312 39.5935 239.254 40.0338 239.617C40.4386 239.95 40.5236 240.53 40.2316 240.964L35.9208 247.374C35.4303 248.104 34.4036 248.252 33.7238 247.692Z" fill="#E06C00"/>
<path d="M33.7717 247.731C33.1177 247.192 33.028 246.24 33.5714 245.604L38.5984 239.706C38.9507 239.294 39.58 239.243 40.0039 239.592C40.417 239.933 40.4844 240.53 40.1565 240.944L35.975 247.513C35.4423 248.185 34.4426 248.284 33.7717 247.731Z" fill="#E06C00"/>
<path d="M36.881 252.64C36.3133 252.173 36.2098 251.353 36.6435 250.76L38.9261 247.64C39.2884 247.144 40.002 247.055 40.4762 247.446C40.8468 247.751 40.9602 248.264 40.7523 248.695L39.076 252.166C38.677 252.992 37.5921 253.226 36.881 252.64Z" fill="#E06C00"/>
<path d="M37.0588 252.787C36.4048 252.248 36.3151 251.296 36.8586 250.66L38.9596 247.468C39.3119 247.056 39.9411 247.005 40.3651 247.354C41.1393 247.992 40.36 249.191 40.0519 250.139L39.8103 250.882C39.4477 251.997 38.7957 253.399 37.648 253.091C37.4383 253.035 37.237 252.934 37.0588 252.787Z" fill="#E06C00"/>
<path d="M0 152H42V171.117C42 172.839 40.8983 174.367 39.2649 174.912L6.58115 185.806C3.34349 186.886 0 184.476 0 181.063V152Z" fill="#CDCDCD"/>
<path d="M184.333 164.713C184.697 162.532 182.657 160.719 180.533 161.339L146.194 171.36C144.898 171.738 144.014 172.935 144.035 174.285L145.305 257.707C145.353 260.877 149.646 261.815 151.012 258.954L163.325 233.162C170.758 217.593 176.677 201.346 181 184.645L184.333 164.713Z" fill="#686868"/>
<path d="M187.536 164.495C187.842 162.666 186.432 161 184.577 161H150.959C149.318 161 147.982 162.318 147.959 163.958L146.66 257.787C146.62 260.711 150.538 261.713 151.906 259.128L165.37 233.681C173.429 218.449 179.681 202.328 184 185.645L187.536 164.495Z" fill="#E06C00"/>
<path d="M187.43 163.477C187.722 162.21 186.759 161 185.458 161H149C147.343 161 146 162.343 146 164V256.839C146 259.126 149.037 259.921 150.158 257.928L152.498 253.766C168.398 225.494 180.161 195.089 187.43 163.477Z" fill="#FE7B00"/>
<path d="M183.882 166.65C183.882 165.765 183.16 165.051 182.276 165.06L149.648 165.401C149.084 165.407 148.63 165.865 148.63 166.429C148.63 166.988 149.075 167.444 149.634 167.457L182.254 168.239C183.147 168.261 183.882 167.543 183.882 166.65Z" fill="#E06C00"/>
<path d="M183.882 166.631C183.882 165.754 183.158 165.043 182.265 165.043L149.678 165.412C149.099 165.412 148.63 165.872 148.63 166.441C148.63 166.995 149.076 167.449 149.64 167.47L182.206 168.218C183.122 168.251 183.882 167.531 183.882 166.631Z" fill="#E06C00"/>
<path d="M182.1 174.149C182.175 173.312 181.555 172.575 180.717 172.505L149.384 169.892C148.844 169.847 148.368 170.248 148.32 170.787C148.273 171.316 148.654 171.786 149.181 171.848L180.403 175.528C181.255 175.629 182.024 175.004 182.1 174.149Z" fill="#E06C00"/>
<path d="M182.101 174.144C182.175 173.308 181.553 172.573 180.71 172.5L149.395 169.896C148.849 169.849 148.368 170.25 148.319 170.791C148.272 171.319 148.655 171.788 149.184 171.853L180.385 175.519C181.246 175.624 182.024 175 182.101 174.144Z" fill="#E06C00"/>
<path d="M180.965 181.257C181.097 180.438 180.547 179.668 179.729 179.527L149.548 174.349C149.007 174.256 148.492 174.624 148.404 175.166C148.321 175.683 148.658 176.173 149.17 176.279L179.146 182.51C179.997 182.686 180.826 182.115 180.965 181.257Z" fill="#E06C00"/>
<path d="M180.961 181.28C181.095 180.452 180.526 179.675 179.691 179.545L149.543 174.333C149.002 174.248 148.493 174.615 148.407 175.152C148.322 175.675 148.67 176.169 149.194 176.27L179.152 182.534C180.003 182.698 180.824 182.129 180.961 181.28Z" fill="#E06C00"/>
<path d="M179.363 188.386C179.585 187.574 179.104 186.743 178.29 186.531L149.514 179.039C148.989 178.902 148.448 179.215 148.305 179.739C148.165 180.252 148.458 180.779 148.966 180.931L177.444 189.452C178.267 189.698 179.137 189.215 179.363 188.386Z" fill="#E06C00"/>
<path d="M179.365 188.382C179.586 187.572 179.103 186.741 178.286 186.526L149.522 179.044C148.992 178.904 148.447 179.217 148.304 179.742C148.164 180.253 148.458 180.78 148.968 180.935L177.432 189.444C178.261 189.694 179.138 189.212 179.365 188.382Z" fill="#E06C00"/>
<path d="M176.588 195.073C176.863 194.289 176.454 193.436 175.671 193.16L149.661 183.976C149.142 183.793 148.569 184.068 148.387 184.587C148.213 185.082 148.459 185.623 148.947 185.816L174.573 195.993C175.381 196.313 176.3 195.894 176.588 195.073Z" fill="#E06C00"/>
<path d="M176.581 195.094C176.859 194.301 176.436 193.439 175.637 193.169L149.656 183.961C149.138 183.786 148.572 184.06 148.392 184.574C148.216 185.075 148.471 185.621 148.97 185.809L174.578 196.021C175.387 196.328 176.296 195.907 176.581 195.094Z" fill="#E06C00"/>
<path d="M174.25 202.063C174.617 201.291 174.271 200.377 173.484 200.041L149.554 189.822C149.061 189.612 148.484 189.83 148.254 190.315C148.022 190.803 148.227 191.382 148.715 191.614L172.195 202.793C172.961 203.158 173.886 202.829 174.25 202.063Z" fill="#E06C00"/>
<path d="M174.266 202.03C174.627 201.27 174.298 200.369 173.532 200.018L149.567 189.855C149.07 189.628 148.478 189.843 148.244 190.336C148.016 190.815 148.212 191.385 148.687 191.624L172.175 202.746C172.947 203.134 173.896 202.809 174.266 202.03Z" fill="#E06C00"/>
<path d="M171.509 208.75C171.917 207.996 171.616 207.064 170.844 206.691L149.63 196.44C149.147 196.206 148.561 196.395 148.306 196.867C148.047 197.344 148.223 197.935 148.701 198.192L169.423 209.373C170.167 209.775 171.106 209.494 171.509 208.75Z" fill="#E06C00"/>
<path d="M171.529 208.713C171.93 207.973 171.65 207.057 170.904 206.667L149.64 196.478C149.156 196.226 148.553 196.41 148.293 196.89C148.04 197.357 148.205 197.936 148.667 198.199L169.403 209.321C170.153 209.748 171.118 209.472 171.529 208.713Z" fill="#E06C00"/>
<path d="M169.088 215.511C169.56 214.797 169.342 213.843 168.606 213.404L149.484 201.994C149.022 201.718 148.418 201.856 148.121 202.304C147.822 202.757 147.945 203.36 148.397 203.66L166.947 215.947C167.655 216.416 168.619 216.219 169.088 215.511Z" fill="#E06C00"/>
<path d="M169.109 215.479C169.574 214.776 169.376 213.84 168.667 213.388L149.486 202.03C149.027 201.736 148.41 201.868 148.108 202.324C147.815 202.768 147.928 203.359 148.365 203.66L166.936 215.903C167.646 216.393 168.631 216.201 169.109 215.479Z" fill="#E06C00"/>
<path d="M166.107 222.137C166.681 221.466 166.554 220.459 165.831 219.951L149.392 208.374C148.965 208.073 148.373 208.147 148.034 208.544C147.67 208.97 147.733 209.606 148.175 209.952L163.981 222.349C164.629 222.857 165.573 222.763 166.107 222.137Z" fill="#E06C00"/>
<path d="M166.177 222.057C166.725 221.414 166.645 220.461 165.998 219.927L149.395 208.467C148.975 208.121 148.347 208.178 147.991 208.594C147.644 209 147.683 209.599 148.08 209.951L163.968 222.217C164.611 222.788 165.614 222.715 166.177 222.057Z" fill="#E06C00"/>
<path d="M163.235 228.728C163.858 228.095 163.794 227.073 163.095 226.521L149.492 215.764C149.085 215.442 148.494 215.478 148.13 215.848C147.734 216.252 147.755 216.897 148.178 217.274L161.113 228.798C161.723 229.341 162.663 229.31 163.235 228.728Z" fill="#E06C00"/>
<path d="M163.321 228.64C163.914 228.037 163.902 227.081 163.294 226.504L149.486 215.872C149.092 215.498 148.461 215.512 148.076 215.903C147.702 216.284 147.698 216.885 148.068 217.263L161.107 228.649C161.708 229.263 162.713 229.259 163.321 228.64Z" fill="#E06C00"/>
<path d="M160.25 235.117C160.855 234.501 160.811 233.513 160.153 232.953L149.493 223.883C149.084 223.535 148.469 223.562 148.093 223.945C147.706 224.338 147.712 224.962 148.105 225.348L158.084 235.137C158.684 235.726 159.66 235.717 160.25 235.117Z" fill="#E06C00"/>
<path d="M160.29 235.076C160.883 234.473 160.871 233.517 160.263 232.94L149.478 223.94C149.083 223.566 148.452 223.58 148.068 223.971C147.693 224.351 147.69 224.952 148.06 225.33L158.076 235.085C158.677 235.699 159.682 235.695 160.29 235.076Z" fill="#E06C00"/>
<path d="M157.595 241.651C158.246 241.054 158.229 240.034 157.557 239.457L149.508 232.555C149.111 232.215 148.517 232.224 148.131 232.577C147.712 232.96 147.694 233.606 148.091 234.013L155.483 241.591C156.052 242.175 156.993 242.201 157.595 241.651Z" fill="#E06C00"/>
<path d="M157.683 241.57C158.307 240.998 158.346 240.043 157.769 239.436L149.486 232.668C149.112 232.275 148.481 232.256 148.076 232.627C147.682 232.988 147.647 233.588 147.996 233.984L155.471 241.465C156.038 242.109 157.042 242.157 157.683 241.57Z" fill="#E06C00"/>
<path d="M154.276 247.692C154.904 247.175 154.985 246.254 154.457 245.635L149.434 239.746C149.064 239.312 148.407 239.254 147.966 239.617C147.561 239.95 147.476 240.53 147.768 240.964L152.079 247.374C152.57 248.104 153.596 248.252 154.276 247.692Z" fill="#E06C00"/>
<path d="M154.228 247.731C154.882 247.192 154.972 246.24 154.429 245.604L149.402 239.706C149.049 239.294 148.42 239.243 147.996 239.592C147.583 239.933 147.516 240.53 147.843 240.944L152.025 247.513C152.558 248.185 153.557 248.284 154.228 247.731Z" fill="#E06C00"/>
<path d="M151.119 252.64C151.687 252.173 151.79 251.353 151.357 250.76L149.074 247.64C148.712 247.144 147.998 247.055 147.524 247.446C147.153 247.751 147.04 248.264 147.248 248.695L148.924 252.166C149.323 252.992 150.408 253.226 151.119 252.64Z" fill="#E06C00"/>
<path d="M150.941 252.787C151.595 252.248 151.685 251.296 151.141 250.66L149.04 247.468C148.688 247.056 148.059 247.005 147.635 247.354C146.861 247.992 147.64 249.191 147.948 250.139L148.19 250.882C148.552 251.997 149.204 253.399 150.352 253.091C150.562 253.035 150.763 252.934 150.941 252.787Z" fill="#E06C00"/>
<path d="M188 152H146V171.117C146 172.839 147.102 174.367 148.735 174.912L181.419 185.806C184.657 186.886 188 184.476 188 181.063V152Z" fill="#CDCDCD"/>
<rect x="84" y="77" width="20" height="41" rx="7" fill="#BFBFBF"/>
<rect x="2" y="85" width="24" height="176" rx="6" transform="rotate(-90 2 85)" fill="#E0E0E0"/>
<rect x="168" y="19" width="10" height="66" rx="5" fill="#E0E0E0"/>
<rect x="2" y="19" width="10" height="66" rx="5" fill="#E0E0E0"/>
</svg>
